<svg width="27" height="27" viewBox="0 0 27 27" fill="none" xmlns="http://www.w3.org/2000/svg">
<path d="M24.75 0H2.25C1.65326 0 1.08097 0.237053 0.65901 0.65901C0.237053 1.08097 0 1.65326 0 2.25V24.75C0 25.3467 0.237053 25.919 0.65901 26.341C1.08097 26.7629 1.65326 27 2.25 27H17.5345C17.83 27.0005 18.1227 26.9424 18.3957 26.8292C18.6687 26.716 18.9165 26.5499 19.125 26.3405L26.3405 19.125C26.5499 18.9165 26.716 18.6687 26.8292 18.3957C26.9424 18.1227 27.0005 17.83 27 17.5345V2.25C27 1.65326 26.7629 1.08097 26.341 0.65901C25.919 0.237053 25.3467 0 24.75 0ZM9 7.875H18C18.2984 7.875 18.5845 7.99353 18.7955 8.2045C19.0065 8.41548 19.125 8.70163 19.125 9C19.125 9.29837 19.0065 9.58452 18.7955 9.79549C18.5845 10.0065 18.2984 10.125 18 10.125H9C8.70163 10.125 8.41548 10.0065 8.2045 9.79549C7.99353 9.58452 7.875 9.29837 7.875 9C7.875 8.70163 7.99353 8.41548 8.2045 8.2045C8.41548 7.99353 8.70163 7.875 9 7.875ZM13.5 19.125H9C8.70163 19.125 8.41548 19.0065 8.2045 18.7955C7.99353 18.5845 7.875 18.2984 7.875 18C7.875 17.7016 7.99353 17.4155 8.2045 17.2045C8.41548 16.9935 8.70163 16.875 9 16.875H13.5C13.7984 16.875 14.0845 16.9935 14.2955 17.2045C14.5065 17.4155 14.625 17.7016 14.625 18C14.625 18.2984 14.5065 18.5845 14.2955 18.7955C14.0845 19.0065 13.7984 19.125 13.5 19.125ZM9 14.625C8.70163 14.625 8.41548 14.5065 8.2045 14.2955C7.99353 14.0845 7.875 13.7984 7.875 13.5C7.875 13.2016 7.99353 12.9155 8.2045 12.7045C8.41548 12.4935 8.70163 12.375 9 12.375H18C18.2984 12.375 18.5845 12.4935 18.7955 12.7045C19.0065 12.9155 19.125 13.2016 19.125 13.5C19.125 13.7984 19.0065 14.0845 18.7955 14.2955C18.5845 14.5065 18.2984 14.625 18 14.625H9ZM18 24.2845V18H24.2859L18 24.2845Z" fill="#1780FF"/>
</svg>
