<svg width="28" height="32" viewBox="0 0 28 32" fill="none" xmlns="http://www.w3.org/2000/svg">
<g clip-path="url(#clip0_1144_104)">
<path d="M13.9487 16C16.0627 16 18.0901 15.1571 19.5849 13.6569C21.0796 12.1566 21.9194 10.1217 21.9194 8C21.9194 5.87827 21.0796 3.84344 19.5849 2.34315C18.0901 0.842855 16.0627 0 13.9487 0C11.8348 0 9.80738 0.842855 8.31258 2.34315C6.81779 3.84344 5.97802 5.87827 5.97802 8C5.97802 10.1217 6.81779 12.1566 8.31258 13.6569C9.80738 15.1571 11.8348 16 13.9487 16ZM7.9707 19.45C3.36264 20.8063 0 25.0812 0 30.1437C0 31.1687 0.828205 32 1.84945 32H26.048C27.0692 32 27.8974 31.1687 27.8974 30.1437C27.8974 25.0812 24.5348 20.8063 19.9267 19.45V22.625C21.6454 23.0687 22.9158 24.6375 22.9158 26.5V29C22.9158 29.55 22.4674 30 21.9194 30H20.9231C20.3751 30 19.9267 29.55 19.9267 29C19.9267 28.45 20.3751 28 20.9231 28V26.5C20.9231 25.3937 20.0326 24.5 18.9304 24.5C17.8282 24.5 16.9377 25.3937 16.9377 26.5V28C17.4857 28 17.9341 28.45 17.9341 29C17.9341 29.55 17.4857 30 16.9377 30H15.9414C15.3934 30 14.9451 29.55 14.9451 29V26.5C14.9451 24.6375 16.2154 23.0687 17.9341 22.625V19.0562C17.5604 19.0187 17.1806 19 16.7945 19H11.1029C10.7169 19 10.337 19.0187 9.96337 19.0562V23.1437C11.4018 23.575 12.4542 24.9125 12.4542 26.5C12.4542 28.4312 10.8912 30 8.96703 30C7.04286 30 5.47985 28.4312 5.47985 26.5C5.47985 24.9125 6.53223 23.575 7.9707 23.1437V19.45ZM8.96703 28C9.3634 28 9.74353 27.842 10.0238 27.5607C10.3041 27.2794 10.4615 26.8978 10.4615 26.5C10.4615 26.1022 10.3041 25.7206 10.0238 25.4393C9.74353 25.158 9.3634 25 8.96703 25C8.57067 25 8.19053 25.158 7.91026 25.4393C7.62998 25.7206 7.47253 26.1022 7.47253 26.5C7.47253 26.8978 7.62998 27.2794 7.91026 27.5607C8.19053 27.842 8.57067 28 8.96703 28Z" fill="#1780FF"/>
</g>
<defs>
<clipPath id="clip0_1144_104">
<rect width="27.8974" height="32" fill="white"/>
</clipPath>
</defs>
</svg>
