<svg width="25" height="27" viewBox="0 0 25 27" fill="none" xmlns="http://www.w3.org/2000/svg">
<path fill-rule="evenodd" clip-rule="evenodd" d="M0.626518 2.05103C0.669245 1.69179 0.795187 1.34748 0.994332 1.04546C1.19348 0.743438 1.46033 0.492039 1.77368 0.311247C2.08704 0.130455 2.43824 0.025256 2.79939 0.00401325C3.16053 -0.0172295 3.52165 0.0460698 3.85403 0.188879C5.53424 0.907159 9.29968 2.61426 14.0777 5.37189C18.8572 8.1311 22.2192 10.5407 23.6795 11.6339C24.9262 12.5689 24.9294 14.4232 23.6811 15.3614C22.2351 16.4483 18.9142 18.8262 14.0777 21.6202C9.23639 24.4142 5.51526 26.1008 3.85087 26.8096C2.41747 27.4218 0.813208 26.4931 0.626518 24.9474C0.408186 23.1406 0 19.0382 0 13.4976C0 7.96023 0.406604 3.85939 0.626518 2.05103Z" fill="#1780FF"/>
</svg>
