<svg width="34" height="24" viewBox="0 0 34 24" fill="none" xmlns="http://www.w3.org/2000/svg">
<path d="M22.8 24H2.4C1.76348 24 1.15303 23.7471 0.702944 23.2971C0.252856 22.847 0 22.2365 0 21.6V2.4C0 1.76348 0.252856 1.15303 0.702944 0.702944C1.15303 0.252856 1.76348 0 2.4 0H22.8C23.4365 0 24.047 0.252856 24.4971 0.702944C24.9471 1.15303 25.2 1.76348 25.2 2.4V7.272L31.704 2.628C31.8831 2.50048 32.0938 2.42461 32.3131 2.40868C32.5324 2.39276 32.7518 2.43738 32.9475 2.53768C33.1431 2.63798 33.3074 2.79011 33.4225 2.97745C33.5376 3.16479 33.599 3.38014 33.6 3.6V20.4C33.599 20.6199 33.5376 20.8352 33.4225 21.0226C33.3074 21.2099 33.1431 21.362 32.9475 21.4623C32.7518 21.5626 32.5324 21.6072 32.3131 21.5913C32.0938 21.5754 31.8831 21.4995 31.704 21.372L25.2 16.728V21.6C25.2 22.2365 24.9471 22.847 24.4971 23.2971C24.047 23.7471 23.4365 24 22.8 24Z" fill="#1780FF"/>
</svg>
