<svg width="16" height="12" viewBox="0 0 16 12" fill="none" xmlns="http://www.w3.org/2000/svg">
<path d="M10.8571 11.4286H1.14286C0.839753 11.4286 0.549062 11.3082 0.334735 11.0938C0.120408 10.8795 0 10.5888 0 10.2857V1.14286C0 0.839753 0.120408 0.549062 0.334735 0.334735C0.549062 0.120408 0.839753 0 1.14286 0H10.8571C11.1602 0 11.4509 0.120408 11.6653 0.334735C11.8796 0.549062 12 0.839753 12 1.14286V3.46286L15.0971 1.25143C15.1824 1.1907 15.2828 1.15458 15.3872 1.14699C15.4916 1.13941 15.5961 1.16066 15.6893 1.20842C15.7824 1.25618 15.8607 1.32862 15.9155 1.41783C15.9703 1.50704 15.9995 1.60959 16 1.71429V9.71429C15.9995 9.81898 15.9703 9.92153 15.9155 10.0107C15.8607 10.0999 15.7824 10.1724 15.6893 10.2202C15.5961 10.2679 15.4916 10.2892 15.3872 10.2816C15.2828 10.274 15.1824 10.2379 15.0971 10.1771L12 7.96571V10.2857C12 10.5888 11.8796 10.8795 11.6653 11.0938C11.4509 11.3082 11.1602 11.4286 10.8571 11.4286Z" fill="black"/>
</svg>
