<svg width="32" height="32" viewBox="0 0 32 32" fill="none" xmlns="http://www.w3.org/2000/svg">
<rect width="32" height="32" rx="6" fill="#1780FF"/>
<g clip-path="url(#clip0_1158_138)">
<path d="M10.293 14.707C10.1055 14.5195 10.0002 14.2652 10.0002 14C10.0002 13.7348 10.1055 13.4805 10.293 13.293L14.793 8.793C14.9805 8.60553 15.2348 8.50021 15.5 8.50021C15.7651 8.50021 16.0194 8.60553 16.207 8.793L20.707 13.293C20.8891 13.4816 20.9899 13.7342 20.9876 13.9964C20.9854 14.2586 20.8802 14.5094 20.6948 14.6948C20.5094 14.8802 20.2586 14.9854 19.9964 14.9877C19.7342 14.99 19.4816 14.8892 19.293 14.707L16.5 12L16.5 21.5C16.5 21.7652 16.3946 22.0196 16.2071 22.2071C16.0195 22.3946 15.7652 22.5 15.5 22.5C15.2348 22.5 14.9804 22.3946 14.7929 22.2071C14.6053 22.0196 14.5 21.7652 14.5 21.5L14.5 12L11.707 14.707C11.5194 14.8945 11.2651 14.9998 11 14.9998C10.7348 14.9998 10.4805 14.8945 10.293 14.707Z" fill="white"/>
</g>
<defs>
<clipPath id="clip0_1158_138">
<rect width="15" height="15" fill="white" transform="translate(8 23) rotate(-90)"/>
</clipPath>
</defs>
</svg>
