<svg width="145" height="24" viewBox="0 0 145 24" fill="none" xmlns="http://www.w3.org/2000/svg">
<path d="M31.6136 19.1818C31.5376 19.4817 31.2908 19.6526 31.0175 19.6526C30.9681 19.6526 30.9187 19.6526 30.8428 19.626L27.5092 18.7793C27.3839 19.0299 27.2092 19.2501 26.9852 19.4741L30.0455 20.7689C30.3454 20.8942 30.4935 21.2663 30.3682 21.589C30.2695 21.813 30.0455 21.9611 29.7949 21.9611C29.7189 21.9611 29.6202 21.9345 29.5443 21.9117L26.0853 20.4423C23.7237 22.6065 20.0141 24 15.811 24C11.6079 24 7.89833 22.6065 5.53668 20.4423L2.07773 21.9117C2.00179 21.9383 1.90307 21.9611 1.82713 21.9611C1.57654 21.9611 1.35633 21.813 1.25381 21.589C1.12852 21.2663 1.28039 20.8942 1.57655 20.7689L4.64441 19.4817C4.4204 19.2577 4.24574 19.0337 4.12044 18.7869L0.786793 19.6336C0.710856 19.6602 0.661499 19.6602 0.61214 19.6602C0.338766 19.6602 0.0881695 19.4855 0.0160289 19.1894C-0.0599084 18.8666 0.141323 18.5173 0.464057 18.4414L3.47498 17.6706C3.07631 16.8239 2.87887 15.9051 2.87887 14.9597C2.87887 12.5714 4.17361 10.4338 6.31124 8.81632C6.26189 8.36829 6.21252 7.89748 6.21252 7.42287C6.21252 4.03226 8.12994 1.29472 10.4916 1.29472C12.5077 1.29472 14.1973 3.28428 14.6454 5.94589C15.0175 5.91931 15.4161 5.89653 15.8148 5.89653C16.2135 5.89653 16.6121 5.92311 16.9842 5.94589C17.4323 3.28428 19.1257 1.29472 21.138 1.29472C23.4997 1.29472 25.4171 4.03227 25.4171 7.41528C25.4171 7.88609 25.3677 8.3607 25.3184 8.80873C27.456 10.4262 28.7507 12.5638 28.7507 14.9521C28.7507 15.8975 28.5533 16.8163 28.1546 17.663L31.1655 18.4338C31.4883 18.5097 31.6857 18.859 31.6136 19.1818Z" fill="#1780FF"/>
<path d="M47.5292 17.1732C47.5292 17.42 47.5216 17.6251 47.5064 17.7883C47.4912 17.9516 47.4723 18.0921 47.4495 18.206C47.4267 18.3199 47.3963 18.411 47.3659 18.4832C47.3318 18.5553 47.2596 18.6426 47.1457 18.7527C47.0318 18.8628 46.8382 18.9919 46.5648 19.1476C46.2914 19.3033 45.9801 19.4438 45.6308 19.5653C45.2815 19.6868 44.9018 19.7855 44.4917 19.8614C44.0817 19.9374 43.6602 19.9753 43.2236 19.9753C42.2516 19.9753 41.3897 19.8235 40.6379 19.5235C39.8861 19.2235 39.2558 18.7755 38.7471 18.187C38.2383 17.5985 37.851 16.8771 37.5928 16.0266C37.3384 15.1761 37.2093 14.2041 37.2093 13.1068C37.2093 11.8424 37.3688 10.7489 37.6839 9.83009C37.9991 8.91125 38.4433 8.14808 39.009 7.54438C39.5748 6.94068 40.2468 6.49265 41.0214 6.20029C41.7959 5.90793 42.6464 5.75985 43.5691 5.75985C43.945 5.75985 44.3171 5.79402 44.6816 5.85857C45.0461 5.92312 45.384 6.01424 45.7029 6.12815C46.0181 6.24205 46.3028 6.36735 46.5534 6.51163C46.804 6.65211 46.9787 6.77741 47.085 6.87993C47.1875 6.98244 47.2634 7.06977 47.3052 7.14191C47.347 7.21405 47.3811 7.30518 47.4039 7.41908C47.4267 7.53299 47.4457 7.67347 47.4609 7.83674C47.4761 8.0038 47.4836 8.20124 47.4836 8.43664C47.4836 8.98339 47.4343 9.37067 47.3432 9.59089C47.2482 9.81111 47.1267 9.92502 46.9749 9.92502C46.8154 9.92502 46.6445 9.86047 46.4661 9.72758C46.2876 9.59469 46.075 9.45041 45.8282 9.28714C45.5814 9.12767 45.2891 8.9796 44.9511 8.8467C44.6132 8.71381 44.2069 8.64927 43.7323 8.64927C42.8059 8.64927 42.0997 9.00617 41.6099 9.71999C41.1201 10.4338 40.8733 11.4779 40.8733 12.8562C40.8733 13.5358 40.934 14.1357 41.0555 14.6559C41.177 15.1761 41.3593 15.6089 41.6023 15.9582C41.8415 16.3076 42.1452 16.5695 42.5097 16.7442C42.8742 16.9188 43.2957 17.0062 43.7779 17.0062C44.2677 17.0062 44.6892 16.934 45.0461 16.786C45.3992 16.6417 45.7105 16.4784 45.9725 16.2962C46.2383 16.1177 46.4585 15.9544 46.6369 15.8064C46.8154 15.6583 46.9673 15.5861 47.0888 15.5861C47.1723 15.5861 47.2444 15.6089 47.3014 15.6583C47.3584 15.7039 47.4039 15.7912 47.4343 15.9203C47.4685 16.0494 47.495 16.2088 47.514 16.4101C47.5216 16.6037 47.5292 16.8619 47.5292 17.1732Z" fill="black"/>
<path d="M60.7005 19.2235C60.7005 19.3564 60.6512 19.459 60.5601 19.5349C60.4651 19.6108 60.3171 19.664 60.1158 19.6982C59.9146 19.7323 59.6146 19.7475 59.216 19.7475C58.7907 19.7475 58.4832 19.7323 58.2895 19.6982C58.0959 19.664 57.9592 19.6108 57.8795 19.5349C57.7997 19.459 57.758 19.3564 57.758 19.2235V18.2174C57.2378 18.7755 56.6455 19.2084 55.981 19.5197C55.3166 19.831 54.5762 19.9867 53.7637 19.9867C53.0916 19.9867 52.4765 19.8994 51.9146 19.7247C51.3527 19.5501 50.8667 19.2919 50.4566 18.9464C50.0465 18.6009 49.7276 18.1756 49.4998 17.663C49.272 17.1505 49.1581 16.5581 49.1581 15.8785C49.1581 15.1419 49.3023 14.504 49.5909 13.9611C49.8795 13.4181 50.3085 12.9701 50.878 12.617C51.4476 12.2639 52.1614 12.0019 53.0081 11.831C53.8586 11.6602 54.842 11.5767 55.9659 11.5767H57.196V10.8135C57.196 10.4186 57.1543 10.0693 57.0745 9.77314C56.9948 9.47699 56.8619 9.22639 56.6797 9.02896C56.4974 8.83152 56.2506 8.68344 55.9431 8.58852C55.6355 8.4936 55.2558 8.44803 54.804 8.44803C54.2079 8.44803 53.6801 8.51258 53.2131 8.64547C52.7461 8.77836 52.3322 8.92264 51.9753 9.08591C51.6184 9.24538 51.3185 9.39345 51.0755 9.52634C50.8363 9.65924 50.6388 9.72378 50.487 9.72378C50.3845 9.72378 50.2895 9.68961 50.2098 9.62506C50.1301 9.56052 50.0617 9.4656 50.0124 9.3403C49.9592 9.2188 49.9212 9.06692 49.8909 8.88847C49.8643 8.71002 49.8491 8.51258 49.8491 8.29236C49.8491 8 49.8719 7.76839 49.9212 7.59754C49.9668 7.42668 50.0579 7.2748 50.1908 7.13811C50.3237 7.00143 50.5553 6.84955 50.8856 6.68629C51.216 6.52302 51.6033 6.36735 52.0475 6.22687C52.4917 6.08638 52.9739 5.96868 53.4979 5.88135C54.0219 5.79023 54.561 5.74846 55.1191 5.74846C56.1101 5.74846 56.9568 5.84718 57.6593 6.03702C58.3617 6.23066 58.9426 6.52682 59.3944 6.92929C59.8463 7.33175 60.1766 7.84813 60.3854 8.47841C60.5942 9.11249 60.6968 9.86047 60.6968 10.73V19.2235H60.7005ZM57.1998 13.8168H55.8406C55.2634 13.8168 54.7736 13.8586 54.3674 13.9421C53.9611 14.0256 53.6308 14.1547 53.3764 14.3256C53.122 14.4964 52.936 14.7015 52.8182 14.9407C52.7005 15.1799 52.6398 15.4571 52.6398 15.7684C52.6398 16.2962 52.8069 16.7138 53.141 17.0138C53.4751 17.3175 53.9421 17.4656 54.5344 17.4656C55.0356 17.4656 55.495 17.3403 55.9165 17.0821C56.3379 16.8277 56.7632 16.4556 57.196 15.962V13.8168H57.1998Z" fill="black"/>
<path d="M71.4609 17.9364C71.4609 18.3503 71.4343 18.6692 71.3811 18.8932C71.328 19.1134 71.2596 19.2729 71.1761 19.3602C71.0926 19.4514 70.9673 19.5311 70.8002 19.5994C70.6332 19.6678 70.4433 19.7323 70.2193 19.7855C69.9991 19.8386 69.7561 19.8766 69.4979 19.907C69.2397 19.9374 68.9777 19.9488 68.7119 19.9488C68.0057 19.9488 67.3906 19.8576 66.8705 19.6792C66.3503 19.5007 65.9212 19.2235 65.5833 18.8515C65.2454 18.4794 64.9948 18.0086 64.8315 17.4428C64.6721 16.8771 64.5923 16.205 64.5923 15.4343V8.96061H63.0774C62.8989 8.96061 62.7622 8.8505 62.6673 8.62649C62.5724 8.40627 62.5268 8.03417 62.5268 7.514C62.5268 7.24063 62.5382 7.00902 62.561 6.81918C62.5838 6.62933 62.6218 6.48126 62.6673 6.37494C62.7129 6.26483 62.7736 6.1889 62.8458 6.13954C62.9179 6.09018 62.9977 6.0674 63.0926 6.0674H64.5923V3.25012C64.5923 3.1552 64.6189 3.07167 64.6721 2.99573C64.7252 2.91979 64.8202 2.85525 64.9568 2.80589C65.0935 2.75273 65.2758 2.71476 65.5074 2.69198C65.739 2.6692 66.0238 2.65781 66.3655 2.65781C66.7148 2.65781 67.0034 2.6692 67.235 2.69198C67.4666 2.71476 67.6488 2.75273 67.7817 2.80589C67.9146 2.85904 68.0095 2.91979 68.0665 2.99573C68.1234 3.07167 68.15 3.1552 68.15 3.25012V6.0674H70.8951C70.9901 6.0674 71.0736 6.09018 71.1419 6.13954C71.2103 6.1889 71.271 6.26483 71.3204 6.37494C71.366 6.48505 71.4039 6.63313 71.4267 6.81918C71.4495 7.00902 71.4609 7.24063 71.4609 7.514C71.4609 8.03417 71.4115 8.40247 71.3204 8.62649C71.2255 8.8467 71.0888 8.96061 70.9103 8.96061H68.15V14.8913C68.15 15.5786 68.2601 16.0987 68.4765 16.4404C68.693 16.786 69.0802 16.9568 69.6384 16.9568C69.8282 16.9568 69.9953 16.9416 70.1472 16.9075C70.299 16.8733 70.4319 16.8353 70.5496 16.7936C70.6673 16.7518 70.766 16.7138 70.8458 16.6796C70.9255 16.6455 70.9977 16.6303 71.066 16.6303C71.123 16.6303 71.1761 16.6455 71.2293 16.6796C71.2824 16.7138 71.3204 16.7784 71.3508 16.8771C71.3773 16.9758 71.4039 17.1125 71.4305 17.2796C71.4457 17.4542 71.4609 17.6706 71.4609 17.9364Z" fill="black"/>
<path d="M94.1282 19.1818C94.1282 19.2767 94.1016 19.3602 94.0447 19.4286C93.9877 19.4969 93.8928 19.5577 93.7599 19.607C93.627 19.6526 93.4485 19.6906 93.2207 19.7133C92.9929 19.7361 92.7044 19.7475 92.3588 19.7475C91.9981 19.7475 91.7058 19.7361 91.4818 19.7133C91.254 19.6906 91.0717 19.6526 90.935 19.607C90.7983 19.5577 90.7034 19.5007 90.6503 19.4286C90.5971 19.3564 90.5705 19.2767 90.5705 19.1818V11.6906C90.5705 11.2653 90.5288 10.878 90.449 10.5287C90.3693 10.1794 90.2478 9.87945 90.0807 9.62886C89.9137 9.37827 89.7086 9.18463 89.458 9.04794C89.2074 8.91125 88.9075 8.84291 88.5582 8.84291C88.1329 8.84291 87.7039 9.00997 87.271 9.3403C86.8382 9.67063 86.3636 10.1528 85.8548 10.7831V19.178C85.8548 19.2729 85.8282 19.3564 85.7713 19.4248C85.7143 19.4969 85.6194 19.5539 85.4827 19.6032C85.346 19.6488 85.1638 19.6868 84.936 19.7095C84.7082 19.7323 84.4272 19.7437 84.0855 19.7437C83.7362 19.7437 83.4476 19.7323 83.2236 19.7095C82.9958 19.6868 82.8135 19.6488 82.6768 19.6032C82.5401 19.5539 82.4414 19.4969 82.3883 19.4248C82.3313 19.3526 82.3047 19.2729 82.3047 19.178V11.6906C82.3047 11.2653 82.263 10.878 82.1832 10.5287C82.1035 10.1794 81.982 9.87945 81.8225 9.62886C81.6631 9.37827 81.4542 9.18463 81.1998 9.04794C80.9455 8.91125 80.6493 8.84291 80.3076 8.84291C79.8747 8.84291 79.4381 9.00997 79.0053 9.3403C78.5724 9.67063 78.1054 10.1528 77.6042 10.7831V19.178C77.6042 19.2729 77.5776 19.3564 77.5207 19.4248C77.4637 19.4969 77.3688 19.5539 77.2321 19.6032C77.0954 19.6488 76.9132 19.6868 76.6854 19.7095C76.4576 19.7323 76.1728 19.7437 75.8235 19.7437C75.4742 19.7437 75.1856 19.7323 74.9616 19.7095C74.7338 19.6868 74.5515 19.6488 74.4148 19.6032C74.2782 19.5539 74.1794 19.4969 74.1263 19.4248C74.0693 19.3526 74.0428 19.2729 74.0428 19.178V6.5534C74.0428 6.45847 74.0655 6.37494 74.1149 6.3066C74.1604 6.23446 74.2478 6.17751 74.3693 6.12815C74.4908 6.08258 74.6502 6.04462 74.8439 6.02183C75.0375 5.99905 75.2805 5.98766 75.5729 5.98766C75.8766 5.98766 76.1234 5.99905 76.3247 6.02183C76.5221 6.04462 76.6778 6.08258 76.7841 6.12815C76.8942 6.17751 76.9701 6.23446 77.0195 6.3066C77.0651 6.37874 77.0916 6.45847 77.0916 6.5534V8.01139C77.7903 7.25582 78.4851 6.69008 79.1799 6.3104C79.8747 5.93451 80.5961 5.74466 81.3517 5.74466C81.8719 5.74466 82.3389 5.79782 82.7528 5.90793C83.1666 6.01804 83.5387 6.17371 83.8652 6.37494C84.1918 6.57618 84.4727 6.81918 84.7082 7.10394C84.9436 7.38871 85.141 7.70385 85.3043 8.05316C85.6801 7.64689 86.0522 7.29758 86.4167 7.00522C86.7812 6.71287 87.1381 6.47366 87.4913 6.29141C87.8444 6.10916 88.1975 5.96868 88.5544 5.88135C88.9075 5.79023 89.2682 5.74846 89.6365 5.74846C90.4756 5.74846 91.1856 5.88894 91.7589 6.17371C92.3361 6.45847 92.7993 6.84196 93.1524 7.32796C93.5055 7.81396 93.7599 8.38349 93.9118 9.03275C94.0636 9.68581 94.1396 10.373 94.1396 11.0982V19.1818H94.1282Z" fill="black"/>
<path d="M109.293 12.4993C109.293 12.9321 109.198 13.2549 109.004 13.4637C108.811 13.6725 108.545 13.775 108.203 13.775H100.515C100.515 14.3142 100.579 14.8002 100.704 15.2406C100.833 15.6811 101.035 16.0532 101.312 16.3607C101.589 16.6683 101.95 16.8999 102.386 17.0631C102.827 17.2226 103.351 17.3023 103.966 17.3023C104.589 17.3023 105.135 17.2568 105.61 17.1694C106.081 17.0783 106.491 16.9796 106.836 16.8733C107.182 16.7632 107.467 16.6645 107.694 16.5771C107.922 16.486 108.104 16.4442 108.245 16.4442C108.328 16.4442 108.401 16.4594 108.458 16.4936C108.515 16.5278 108.56 16.5847 108.598 16.6721C108.636 16.7556 108.663 16.8771 108.678 17.0328C108.693 17.1884 108.701 17.3859 108.701 17.6213C108.701 17.8301 108.697 18.0048 108.685 18.1528C108.674 18.3009 108.663 18.4224 108.644 18.5287C108.625 18.6312 108.594 18.7186 108.56 18.7907C108.522 18.8628 108.473 18.9312 108.412 18.9957C108.351 19.0603 108.184 19.1514 107.911 19.2653C107.637 19.3792 107.288 19.4893 106.863 19.5994C106.438 19.7095 105.952 19.8007 105.405 19.8842C104.858 19.9639 104.273 20.0057 103.651 20.0057C102.527 20.0057 101.543 19.8652 100.701 19.5805C99.8539 19.2957 99.1514 18.8666 98.5857 18.2933C98.02 17.7162 97.5985 16.991 97.3176 16.1139C97.0404 15.2368 96.8999 14.2079 96.8999 13.0271C96.8999 11.9032 97.048 10.8932 97.3403 9.98956C97.6327 9.0897 98.0579 8.32274 98.6161 7.69625C99.1742 7.06977 99.8501 6.59136 100.647 6.25724C101.445 5.92691 102.345 5.75985 103.343 5.75985C104.399 5.75985 105.306 5.91552 106.054 6.22687C106.806 6.53821 107.421 6.97105 107.903 7.5216C108.385 8.07214 108.739 8.729 108.966 9.48458C109.194 10.2402 109.304 11.0603 109.304 11.9487V12.4993H109.293ZM105.838 11.4817C105.864 10.4832 105.667 9.6972 105.238 9.12388C104.809 8.55435 104.144 8.26578 103.248 8.26578C102.796 8.26578 102.402 8.34932 102.067 8.52017C101.733 8.69103 101.452 8.91885 101.232 9.20741C101.012 9.49597 100.841 9.83389 100.723 10.2288C100.606 10.6198 100.537 11.0375 100.518 11.4817H105.838Z" fill="black"/>
<path d="M124.199 19.1818C124.199 19.2843 124.177 19.3716 124.127 19.4438C124.078 19.5159 123.998 19.5729 123.888 19.6222C123.774 19.6678 123.622 19.702 123.429 19.7209C123.235 19.7399 122.996 19.7475 122.715 19.7475C122.411 19.7475 122.168 19.7399 121.978 19.7209C121.788 19.702 121.637 19.6678 121.519 19.6222C121.401 19.5767 121.314 19.5159 121.264 19.4438C121.211 19.3716 121.185 19.2843 121.185 19.1818V17.7807C120.532 18.4794 119.852 19.0223 119.138 19.4096C118.424 19.7969 117.635 19.9905 116.765 19.9905C115.801 19.9905 114.988 19.8045 114.324 19.4324C113.659 19.0603 113.116 18.5553 112.695 17.925C112.273 17.2909 111.97 16.5543 111.784 15.7076C111.594 14.8647 111.499 13.9725 111.499 13.0384C111.499 11.9146 111.62 10.9046 111.86 10.0085C112.099 9.11249 112.452 8.34552 112.915 7.71524C113.378 7.08116 113.952 6.59516 114.643 6.25724C115.33 5.91552 116.123 5.74846 117.02 5.74846C117.73 5.74846 118.367 5.89274 118.945 6.1813C119.522 6.46987 120.091 6.89132 120.657 7.44946V0.607499C120.657 0.512577 120.683 0.429046 120.737 0.353109C120.79 0.277171 120.881 0.212625 121.021 0.163265C121.158 0.110109 121.34 0.0721406 121.568 0.0417656C121.796 0.0151875 122.081 0 122.43 0C122.779 0 123.068 0.0151875 123.292 0.0417656C123.52 0.0683437 123.698 0.110109 123.831 0.163265C123.964 0.216422 124.059 0.277171 124.116 0.353109C124.173 0.429046 124.199 0.512577 124.199 0.607499V19.1818ZM120.661 10.7451C120.152 10.1035 119.662 9.61367 119.195 9.27195C118.728 8.93024 118.238 8.76317 117.73 8.76317C117.266 8.76317 116.868 8.87708 116.534 9.10869C116.199 9.3403 115.93 9.64784 115.725 10.0351C115.52 10.4224 115.372 10.8552 115.273 11.3299C115.174 11.8083 115.125 12.2943 115.125 12.7954C115.125 13.3232 115.167 13.8396 115.25 14.337C115.334 14.8382 115.474 15.2824 115.668 15.6735C115.861 16.0646 116.12 16.3797 116.439 16.6151C116.761 16.8505 117.164 16.9682 117.657 16.9682C117.904 16.9682 118.14 16.934 118.371 16.8619C118.603 16.7898 118.838 16.6758 119.077 16.5164C119.317 16.3569 119.567 16.1443 119.822 15.8861C120.076 15.6279 120.353 15.309 120.657 14.9293V10.7451H120.661Z" fill="black"/>
<path d="M131.618 2.27812C131.618 2.99573 131.47 3.48932 131.178 3.76649C130.886 4.03987 130.343 4.17656 129.549 4.17656C128.748 4.17656 128.205 4.04367 127.928 3.78168C127.651 3.5159 127.51 3.04129 127.51 2.35026C127.51 1.63265 127.655 1.13526 127.943 0.858092C128.232 0.580921 128.775 0.440437 129.58 0.440437C130.373 0.440437 130.912 0.573327 131.193 0.842905C131.474 1.11248 131.618 1.58709 131.618 2.27812ZM131.349 19.1818C131.349 19.2767 131.322 19.3602 131.265 19.4286C131.208 19.5007 131.113 19.5577 130.977 19.607C130.84 19.6526 130.658 19.6906 130.43 19.7133C130.202 19.7361 129.914 19.7475 129.564 19.7475C129.215 19.7475 128.926 19.7361 128.702 19.7133C128.475 19.6906 128.292 19.6526 128.156 19.607C128.019 19.5577 127.92 19.5007 127.867 19.4286C127.81 19.3564 127.784 19.2767 127.784 19.1818V6.57997C127.784 6.48505 127.81 6.40152 127.867 6.33318C127.924 6.26104 128.019 6.20029 128.156 6.15093C128.292 6.09777 128.475 6.0598 128.702 6.02943C128.93 6.00285 129.215 5.98766 129.564 5.98766C129.914 5.98766 130.202 6.00285 130.43 6.02943C130.658 6.05601 130.836 6.09777 130.977 6.15093C131.113 6.20408 131.212 6.26483 131.265 6.33318C131.322 6.40532 131.349 6.48505 131.349 6.57997V19.1818Z" fill="black"/>
<path d="M144.463 17.1732C144.463 17.42 144.456 17.6251 144.441 17.7883C144.425 17.9516 144.406 18.0921 144.384 18.206C144.361 18.3199 144.33 18.411 144.3 18.4832C144.266 18.5553 144.194 18.6426 144.08 18.7527C143.966 18.8628 143.772 18.9919 143.499 19.1476C143.226 19.3033 142.914 19.4438 142.565 19.5653C142.216 19.6868 141.836 19.7855 141.426 19.8614C141.016 19.9374 140.594 19.9753 140.158 19.9753C139.186 19.9753 138.324 19.8235 137.572 19.5235C136.82 19.2235 136.194 18.7755 135.681 18.187C135.172 17.5985 134.785 16.8771 134.527 16.0266C134.269 15.1761 134.136 14.2041 134.136 13.1106C134.136 11.8462 134.295 10.7527 134.61 9.83389C134.926 8.91505 135.366 8.15188 135.936 7.54818C136.501 6.94447 137.173 6.49644 137.944 6.20408C138.719 5.91173 139.569 5.76365 140.492 5.76365C140.868 5.76365 141.24 5.79782 141.604 5.86237C141.969 5.92691 142.307 6.01804 142.622 6.13194C142.937 6.24585 143.222 6.37115 143.472 6.51543C143.723 6.65591 143.898 6.78121 144.004 6.88372C144.106 6.98624 144.182 7.07357 144.224 7.14571C144.266 7.21785 144.3 7.30897 144.323 7.42288C144.346 7.53679 144.365 7.67727 144.38 7.84053C144.395 8.0076 144.403 8.20503 144.403 8.44044C144.403 8.98719 144.353 9.37447 144.262 9.59469C144.167 9.81491 144.046 9.92881 143.894 9.92881C143.734 9.92881 143.563 9.86427 143.385 9.73138C143.207 9.59848 142.994 9.4542 142.747 9.29094C142.5 9.13147 142.208 8.98339 141.87 8.8505C141.528 8.71761 141.126 8.65306 140.651 8.65306C139.725 8.65306 139.019 9.00997 138.529 9.72378C138.039 10.4376 137.792 11.4817 137.792 12.86C137.792 13.5396 137.853 14.1395 137.974 14.6597C138.096 15.1799 138.278 15.6127 138.521 15.962C138.764 16.3114 139.064 16.5733 139.429 16.748C139.793 16.9226 140.215 17.01 140.697 17.01C141.187 17.01 141.612 16.9378 141.965 16.7898C142.318 16.6455 142.629 16.4822 142.891 16.3C143.157 16.1215 143.377 15.9582 143.556 15.8102C143.734 15.6621 143.886 15.5899 144.008 15.5899C144.091 15.5899 144.163 15.6127 144.22 15.6621C144.277 15.7076 144.323 15.795 144.353 15.9241C144.387 16.0532 144.414 16.2126 144.433 16.4139C144.452 16.6037 144.463 16.8619 144.463 17.1732Z" fill="black"/>
</svg>
